# xmcd CD database file
#
# Track frame offsets:
#	150
#	21450
#	42682
#
# Disc length: 801 seconds
#
# Revision: 1
# Processed by: cddbd v1.5.1PL0 Copyright (c) Steve Scherf et al.
# Submitted via: CDex 1.51
#
DISCID=26031f03
DTITLE=Lustro - Lustro
DYEAR=2000
DGENRE=Progressive Rock
TTITLE0=Cisza
TTITLE1=Millenium
TTITLE2=Ja, Twoj Cien
EXTD=YEAR: 2000
EXTT0=
EXTT1=
EXTT2=
PLAYORDER=
